<svg xmlns="http://www.w3.org/2000/svg" width="2000" viewBox="0 0 1500 1500" height="2000" version="1.0"><defs><clipPath id="a"><path d="M239 277.5h1025V1088H239Zm0 0"/></clipPath><clipPath id="b"><path d="M364 786h986v436.5H364Zm0 0"/></clipPath></defs><path fill="#fff" d="M-150-150h1800v1800H-150z"/><path fill="#fff" d="M-150-150h1800v1800H-150z"/><g clip-path="url(#a)"><path fill="#02173b" d="M282.805 903.383c20.925-93.54 136.035-155.446 299.25-176.516l208.351-360.883L998.79 726.906l15.024 26.032c2.476.55 4.937 1.074 7.402 1.62 84.742 18.973 164.21 44.149 235.988 73.637 4.25-25.445 6.535-51.554 6.535-78.195 0-260.742-211.383-472.133-472.129-472.133-257.941 0-467.539 206.86-472.023 463.735-46.336 47.703-169.602 203.62 32.695 346.238-56.281-61.375-82.75-125.223-69.476-184.457"/></g><path fill="#02173b" d="M754.254 719.555c24.476.828 49.527 2.406 75.023 4.71l-38.87-67.32-36.153 62.61"/><g clip-path="url(#b)"><path fill="#03035e" d="M1004.668 792.29c-299.945-27.548-559.992 41.483-639.93 159.39 12.496 26.398 27.29 51.484 44.258 74.922l84.945-147.125c54.375-25.7 123.032-45.575 201.274-57.657l-32.578 56.41-121.004 209.61H461.93c85.086 83.055 201.379 134.285 329.68 134.285 128.288 0 244.577-51.23 329.667-134.285h-82.097L918.156 878.23l-40.195-69.617c40.95.102 82.871 2.07 124.66 5.899 16.781 1.543 33.402 3.433 49.95 5.547l120.28 208.336c37.102-50.735 64.403-109.086 78.922-172.356l98.184 14.79c-97.742-38.548-216.23-66.68-345.289-78.54"/></g></svg>